<svg xmlns="http://www.w3.org/2000/svg" width="45" height="52.48" viewBox="0 0 45 52.48"><path d="M9,22.468v13.57a3.211,3.211,0,0,1-3.223,3.246A3.5,3.5,0,0,1,2.25,36.038V22.468a3.5,3.5,0,0,1,3.527-3.223A3.236,3.236,0,0,1,9,22.468Zm1.266,18.4a3.461,3.461,0,0,0,3.469,3.469h2.332L16.1,51.5c0,4.324,6.469,4.289,6.469,0v-7.16H26.93V51.5c0,4.3,6.5,4.313,6.5,0v-7.16H35.8a3.456,3.456,0,0,0,3.445-3.469V19.843H10.266V40.867Zm29.063-22.16H10.137A13.171,13.171,0,0,1,17.59,7.058L15.352,2.921a.451.451,0,1,1,.785-.445L18.41,6.648a15.833,15.833,0,0,1,12.691,0l2.262-4.16a.452.452,0,1,1,.785.445L31.91,7.058a13.2,13.2,0,0,1,7.418,11.648Zm-20-6.5a1.23,1.23,0,0,0-1.23-1.23,1.231,1.231,0,0,0,0,2.461A1.23,1.23,0,0,0,19.324,12.2Zm13.289,0a1.213,1.213,0,1,0-1.2,1.23A1.223,1.223,0,0,0,32.613,12.2Zm11.109,7.043A3.213,3.213,0,0,0,40.5,22.468v13.57a3.233,3.233,0,0,0,3.223,3.246,3.49,3.49,0,0,0,3.527-3.246V22.468A3.47,3.47,0,0,0,43.723,19.246Z" transform="translate(-2.25 -2.245)"/></svg>