<svg xmlns="http://www.w3.org/2000/svg" width="45" height="45" viewBox="0 0 45 45"><path d="M44.175,19.175c-.773-3.1-2.24-5.444-5.364-5.444H34.784v4.761a6.889,6.889,0,0,1-6.71,6.81H17.347a5.474,5.474,0,0,0-5.364,5.454V40.981c0,2.913,2.531,4.62,5.364,5.454a18.05,18.05,0,0,0,10.727,0c2.7-.783,5.364-2.36,5.364-5.454V36.893H22.72V35.527H38.811c3.124,0,4.279-2.18,5.364-5.444,1.125-3.365,1.075-6.6,0-10.908ZM28.747,39.615a2.044,2.044,0,1,1-2.019,2.039A2.03,2.03,0,0,1,28.747,39.615ZM16.854,23.956H27.582A5.408,5.408,0,0,0,32.945,18.5V8.267c0-2.913-2.451-5.092-5.364-5.585a33.109,33.109,0,0,0-10.727.01c-4.54.8-5.364,2.481-5.364,5.585v4.088H22.228v1.366H7.463a6.706,6.706,0,0,0-6.71,5.444,20.117,20.117,0,0,0,0,10.908c.763,3.174,2.581,5.444,5.705,5.444h3.686v-4.9A6.82,6.82,0,0,1,16.854,23.956ZM16.181,9.633A2.044,2.044,0,1,1,18.2,7.594,2.03,2.03,0,0,1,16.181,9.633Z" transform="translate(0 -2.25)"/></svg>